<svg width="1068" height="275" viewBox="0 0 1068 275" fill="none" xmlns="http://www.w3.org/2000/svg">
<path d="M175.085 0V227.012H214.74V129.598C215.603 107.759 231.407 94.2529 250.947 94.2529C270.2 94.2529 280.545 104.598 280.545 122.126V227.012H320.2V116.379C320.2 79.023 297.786 59.4828 264.453 59.4828C242.901 59.4828 227.384 66.954 214.74 83.3333V0H175.085Z" fill="#050505"/>
<path d="M81.3218 46.8391C104.023 46.8391 120.977 58.046 121.839 82.1839L161.494 77.0115C159.77 39.3678 130.747 14.6552 81.3218 14.6552C35.9195 14.6552 5.45977 39.3678 5.45977 75.5747C5.45977 115.805 36.7816 129.023 80.7471 138.506L81.312 138.632C102.932 143.466 122.701 147.887 122.701 169.253C122.701 189.08 107.471 197.701 83.9081 197.701C57.7586 197.701 40.5172 184.195 39.6552 156.609L0 161.782C1.43678 202.586 32.1839 229.885 83.3333 229.885C135.632 229.885 165.517 204.598 165.517 166.379C165.517 126.724 136.782 111.782 100.575 104.31C68.1035 97.4138 47.1264 92.5287 47.1264 71.8391C47.1264 57.1839 58.9081 46.8391 81.3218 46.8391Z" fill="#050505"/>
<path fill-rule="evenodd" clip-rule="evenodd" d="M409.521 229.885C360.383 229.885 328.774 195.977 328.774 145.115C328.774 93.9655 360.383 60.0575 409.521 60.0575C458.659 60.0575 490.268 93.9655 490.268 145.115C490.268 196.264 458.659 229.885 409.521 229.885ZM409.521 197.414C435.67 197.414 450.9 178.161 450.9 144.828C450.9 111.494 435.67 92.5287 409.521 92.5287C383.371 92.5287 368.142 112.069 368.142 145.115C368.142 178.161 383.371 197.414 409.521 197.414Z" fill="#050505"/>
<path fill-rule="evenodd" clip-rule="evenodd" d="M499.102 62.931V275H538.47V203.161C548.527 221.264 566.918 229.885 588.757 229.885C631.861 229.885 659.447 196.552 659.447 143.966C659.447 92.5287 632.435 60.0575 589.619 60.0575C566.343 60.0575 546.516 70.1149 537.608 88.2184L535.596 62.931H499.102ZM578.987 196.839C553.7 196.839 538.47 179.885 538.47 150.862V137.931C538.47 109.483 553.987 92.8161 579.274 92.8161C604.562 92.8161 618.93 111.207 618.93 144.253C618.93 178.161 604.849 196.839 578.987 196.839Z" fill="#050505"/>
<path fill-rule="evenodd" clip-rule="evenodd" d="M801.114 229.885C741.056 229.885 703.125 191.667 703.125 122.414C703.125 56.0345 737.895 14.9425 801.114 14.9425C861.458 14.9425 899.677 52.8736 899.677 122.126C899.677 188.506 864.907 229.885 801.114 229.885ZM831.977 104.136C833.477 93.9283 835.978 91.065 844.729 89.3221C845.729 89.1976 845.729 87.7037 844.729 87.4547C835.978 85.5874 833.477 82.7241 831.977 72.5159C831.852 71.3954 830.227 71.3954 830.102 72.5159C828.602 82.7241 825.977 85.5874 817.351 87.3302C816.351 87.5792 816.351 88.9486 817.351 89.1976C826.102 91.065 828.602 93.9283 830.102 104.136C830.227 105.257 831.852 105.257 831.977 104.136ZM795.848 173.229C799.599 139.118 804.599 133.267 832.727 128.661C833.728 128.412 833.728 126.918 832.727 126.794C804.599 122.063 799.599 116.461 795.848 82.3506C795.723 81.2302 794.098 81.2302 793.973 82.3506C790.223 116.461 785.222 122.188 757.094 126.794C755.969 126.918 755.969 128.537 757.094 128.661C785.222 133.392 790.223 139.118 793.973 173.229C794.098 174.349 795.723 174.349 795.848 173.229Z" fill="#050505"/>
<path d="M983.217 46.8391C1005.92 46.8391 1022.87 58.046 1023.73 82.1839L1063.39 77.0115C1061.66 39.3678 1032.64 14.6552 983.217 14.6552C937.814 14.6552 907.355 39.3678 907.355 75.5747C907.355 115.805 938.676 129.023 982.642 138.506L983.207 138.632C1004.83 143.466 1024.6 147.887 1024.6 169.253C1024.6 189.08 1009.37 197.701 985.803 197.701C959.653 197.701 942.412 184.195 941.55 156.609L901.895 161.782C903.332 202.586 934.079 229.885 985.228 229.885C1037.53 229.885 1067.41 204.598 1067.41 166.379C1067.41 126.724 1038.68 111.782 1002.47 104.31C969.998 97.4138 949.021 92.5287 949.021 71.8391C949.021 57.1839 960.803 46.8391 983.217 46.8391Z" fill="#050505"/>
</svg>
